<svg xmlns="http://www.w3.org/2000/svg" viewBox="0 0 800 500" fill="none">
  <defs>
    <!-- Room fill styles -->
    <pattern id="grid-fine" width="10" height="10" patternUnits="userSpaceOnUse">
      <path d="M 10 0 L 0 0 0 10" fill="none" stroke="#1e274410" stroke-width="0.5"/>
    </pattern>
    <filter id="glow-cyan" x="-20%" y="-20%" width="140%" height="140%">
      <feGaussianBlur stdDeviation="2" result="blur"/>
      <feMerge><feMergeNode in="blur"/><feMergeNode in="SourceGraphic"/></feMerge>
    </filter>
    <filter id="glow-red" x="-20%" y="-20%" width="140%" height="140%">
      <feGaussianBlur stdDeviation="3" result="blur"/>
      <feMerge><feMergeNode in="blur"/><feMergeNode in="SourceGraphic"/></feMerge>
    </filter>
  </defs>

  <!-- Background grid -->
  <rect width="800" height="500" fill="#0a0e1a"/>
  <rect width="800" height="500" fill="url(#grid-fine)"/>

  <!-- Outer perimeter wall -->
  <rect x="20" y="20" width="760" height="460" rx="2" fill="none" stroke="#2a3555" stroke-width="2" stroke-dasharray="none"/>

  <!-- Perimeter road / clearance zone -->
  <rect x="30" y="30" width="740" height="440" rx="2" fill="none" stroke="#1e274480" stroke-width="1" stroke-dasharray="4 3"/>

  <!-- ===== ENTRY GATE (bottom-left) ===== -->
  <rect x="20" y="400" width="60" height="3" fill="#00e5ff" opacity="0.6"/>
  <text x="50" y="430" font-family="monospace" font-size="8" fill="#5a7aa0" text-anchor="middle">ENTRY GATE</text>
  <!-- Gate posts -->
  <rect x="22" y="396" width="4" height="10" fill="#2a3555"/>
  <rect x="74" y="396" width="4" height="10" fill="#2a3555"/>
  <!-- Gate arrow -->
  <path d="M50 450 L50 438 M45 443 L50 438 L55 443" stroke="#5a7aa0" stroke-width="1" fill="none"/>

  <!-- ===== LOADING BAY / RECEIVING (bottom-left area) ===== -->
  <rect x="40" y="340" width="130" height="100" rx="1" fill="#00e5ff08" stroke="#2a3555" stroke-width="1.5"/>
  <text x="105" y="360" font-family="monospace" font-size="8" fill="#5a7aa0" text-anchor="middle">LOADING BAY</text>
  <text x="105" y="370" font-family="monospace" font-size="7" fill="#3d5575" text-anchor="middle">RECEIVING</text>
  <!-- Loading dock lines -->
  <line x1="45" y1="420" x2="165" y2="420" stroke="#1e2744" stroke-width="0.5" stroke-dasharray="3 2"/>
  <line x1="45" y1="410" x2="165" y2="410" stroke="#1e2744" stroke-width="0.5" stroke-dasharray="3 2"/>
  <!-- Truck bays -->
  <rect x="55" y="422" width="25" height="12" rx="1" fill="none" stroke="#3d5575" stroke-width="0.8"/>
  <rect x="90" y="422" width="25" height="12" rx="1" fill="none" stroke="#3d5575" stroke-width="0.8"/>
  <rect x="125" y="422" width="25" height="12" rx="1" fill="none" stroke="#3d5575" stroke-width="0.8"/>

  <!-- ===== CRUSHER ROOM (top-left) ===== -->
  <rect x="40" y="40" width="180" height="130" rx="1" fill="#00e5ff08" stroke="#2a3555" stroke-width="1.5"/>
  <text x="130" y="58" font-family="monospace" font-size="9" fill="#5a7aa0" text-anchor="middle">CRUSHER ROOM</text>
  <!-- Primary crusher symbol -->
  <g transform="translate(100, 100)">
    <circle r="22" fill="none" stroke="#3d5575" stroke-width="1"/>
    <circle r="8" fill="none" stroke="#5a7aa0" stroke-width="1"/>
    <line x1="-22" y1="0" x2="-8" y2="0" stroke="#3d5575" stroke-width="0.8"/>
    <line x1="22" y1="0" x2="8" y2="0" stroke="#3d5575" stroke-width="0.8"/>
    <line x1="0" y1="-22" x2="0" y2="-8" stroke="#3d5575" stroke-width="0.8"/>
    <line x1="0" y1="22" x2="0" y2="8" stroke="#3d5575" stroke-width="0.8"/>
  </g>
  <text x="100" y="135" font-family="monospace" font-size="6" fill="#3d5575" text-anchor="middle">PRIMARY CRUSHER</text>
  <!-- Feed hopper -->
  <polygon points="160,75 185,75 180,95 165,95" fill="none" stroke="#3d5575" stroke-width="0.8"/>
  <text x="172" y="110" font-family="monospace" font-size="5" fill="#3d5575" text-anchor="middle">HOPPER</text>

  <!-- ===== CONVEYOR HALL (top-center, long) ===== -->
  <rect x="230" y="40" width="250" height="100" rx="1" fill="#00e5ff08" stroke="#2a3555" stroke-width="1.5"/>
  <text x="355" y="58" font-family="monospace" font-size="9" fill="#5a7aa0" text-anchor="middle">CONVEYOR HALL</text>
  <!-- Conveyor belt lines -->
  <line x1="240" y1="85" x2="470" y2="85" stroke="#5a7aa0" stroke-width="1.5"/>
  <line x1="240" y1="95" x2="470" y2="95" stroke="#5a7aa0" stroke-width="1.5"/>
  <!-- Conveyor direction arrows -->
  <path d="M280 90 L290 85 L280 80" fill="none" stroke="#00e5ff40" stroke-width="0.8"/>
  <path d="M340 90 L350 85 L340 80" fill="none" stroke="#00e5ff40" stroke-width="0.8"/>
  <path d="M400 90 L410 85 L400 80" fill="none" stroke="#00e5ff40" stroke-width="0.8"/>
  <path d="M450 90 L460 85 L450 80" fill="none" stroke="#00e5ff40" stroke-width="0.8"/>
  <!-- Conveyor rollers -->
  <line x1="260" y1="83" x2="260" y2="97" stroke="#3d5575" stroke-width="0.5"/>
  <line x1="300" y1="83" x2="300" y2="97" stroke="#3d5575" stroke-width="0.5"/>
  <line x1="340" y1="83" x2="340" y2="97" stroke="#3d5575" stroke-width="0.5"/>
  <line x1="380" y1="83" x2="380" y2="97" stroke="#3d5575" stroke-width="0.5"/>
  <line x1="420" y1="83" x2="420" y2="97" stroke="#3d5575" stroke-width="0.5"/>
  <line x1="460" y1="83" x2="460" y2="97" stroke="#3d5575" stroke-width="0.5"/>
  <!-- Belt tensioner -->
  <circle cx="250" cy="110" r="6" fill="none" stroke="#3d5575" stroke-width="0.8"/>
  <text x="250" y="125" font-family="monospace" font-size="5" fill="#3d5575" text-anchor="middle">TENSIONER</text>

  <!-- ===== PUMP STATION (center — HERO AREA) ===== -->
  <rect x="230" y="150" width="200" height="150" rx="1" fill="#ff444415" stroke="#ff4444" stroke-width="2" filter="url(#glow-red)"/>
  <rect x="230" y="150" width="200" height="150" rx="1" fill="none" stroke="#ff444480" stroke-width="1" stroke-dasharray="none"/>
  <text x="330" y="170" font-family="monospace" font-size="10" fill="#ff6666" text-anchor="middle" font-weight="bold">PUMP STATION</text>

  <!-- Pump 1 -->
  <g transform="translate(270, 215)">
    <rect x="-18" y="-12" width="36" height="24" rx="2" fill="none" stroke="#5a7aa0" stroke-width="1"/>
    <circle r="8" fill="none" stroke="#5a7aa0" stroke-width="1"/>
    <line x1="18" y1="0" x2="30" y2="0" stroke="#5a7aa0" stroke-width="1.5"/>
    <line x1="-18" y1="0" x2="-30" y2="0" stroke="#5a7aa0" stroke-width="1.5"/>
  </g>
  <text x="270" y="240" font-family="monospace" font-size="6" fill="#5a7aa0" text-anchor="middle">PUMP 1</text>

  <!-- Pump 2 -->
  <g transform="translate(355, 215)">
    <rect x="-18" y="-12" width="36" height="24" rx="2" fill="none" stroke="#5a7aa0" stroke-width="1"/>
    <circle r="8" fill="none" stroke="#5a7aa0" stroke-width="1"/>
    <line x1="18" y1="0" x2="30" y2="0" stroke="#5a7aa0" stroke-width="1.5"/>
    <line x1="-18" y1="0" x2="-30" y2="0" stroke="#5a7aa0" stroke-width="1.5"/>
  </g>
  <text x="355" y="240" font-family="monospace" font-size="6" fill="#5a7aa0" text-anchor="middle">PUMP 2</text>

  <!-- Pump 3 — the failing one — highlighted -->
  <g transform="translate(310, 270)">
    <rect x="-18" y="-12" width="36" height="24" rx="2" fill="#ff444420" stroke="#ff6666" stroke-width="1.5" filter="url(#glow-red)"/>
    <circle r="8" fill="none" stroke="#ff6666" stroke-width="1.5"/>
    <line x1="18" y1="0" x2="30" y2="0" stroke="#ff6666" stroke-width="1.5"/>
    <line x1="-18" y1="0" x2="-30" y2="0" stroke="#ff6666" stroke-width="1.5"/>
  </g>
  <text x="310" y="293" font-family="monospace" font-size="6" fill="#ff6666" text-anchor="middle" font-weight="bold">PUMP 3 [CRITICAL]</text>

  <!-- Pipe runs in pump station -->
  <line x1="240" y1="185" x2="420" y2="185" stroke="#3d557580" stroke-width="2"/>
  <line x1="240" y1="250" x2="420" y2="250" stroke="#3d557580" stroke-width="2"/>
  <!-- Valve symbols -->
  <g transform="translate(300, 185)">
    <polygon points="-4,-4 4,0 -4,4" fill="#3d5575"/>
    <polygon points="4,-4 -4,0 4,4" fill="#3d5575"/>
  </g>
  <g transform="translate(370, 185)">
    <polygon points="-4,-4 4,0 -4,4" fill="#3d5575"/>
    <polygon points="4,-4 -4,0 4,4" fill="#3d5575"/>
  </g>

  <!-- ===== COOLING TOWER (right side) ===== -->
  <rect x="490" y="40" width="140" height="130" rx="1" fill="#00e5ff08" stroke="#2a3555" stroke-width="1.5"/>
  <text x="560" y="58" font-family="monospace" font-size="9" fill="#5a7aa0" text-anchor="middle">COOLING TOWER</text>
  <!-- Cooling tower symbol (concentric circles) -->
  <circle cx="560" cy="105" r="30" fill="none" stroke="#3d5575" stroke-width="1"/>
  <circle cx="560" cy="105" r="20" fill="none" stroke="#3d5575" stroke-width="0.8"/>
  <circle cx="560" cy="105" r="10" fill="none" stroke="#3d5575" stroke-width="0.6"/>
  <!-- Fan blades -->
  <line x1="560" y1="75" x2="560" y2="135" stroke="#3d557560" stroke-width="0.5"/>
  <line x1="530" y1="105" x2="590" y2="105" stroke="#3d557560" stroke-width="0.5"/>
  <line x1="539" y1="84" x2="581" y2="126" stroke="#3d557560" stroke-width="0.5"/>
  <line x1="581" y1="84" x2="539" y2="126" stroke="#3d557560" stroke-width="0.5"/>
  <!-- Coolant pipe to pump station -->
  <line x1="490" y1="130" x2="430" y2="180" stroke="#00e5ff30" stroke-width="1.5" stroke-dasharray="4 2"/>
  <text x="465" y="148" font-family="monospace" font-size="5" fill="#3d5575" transform="rotate(-35, 465, 148)">COOLANT</text>

  <!-- ===== GENERATOR ROOM (right side, below cooling) ===== -->
  <rect x="490" y="180" width="140" height="100" rx="1" fill="#00e5ff08" stroke="#2a3555" stroke-width="1.5"/>
  <text x="560" y="198" font-family="monospace" font-size="9" fill="#5a7aa0" text-anchor="middle">GENERATOR ROOM</text>
  <!-- Generator symbol -->
  <g transform="translate(535, 240)">
    <rect x="-20" y="-12" width="40" height="24" rx="2" fill="none" stroke="#3d5575" stroke-width="1"/>
    <text x="0" y="4" font-family="monospace" font-size="8" fill="#3d5575" text-anchor="middle">GEN</text>
  </g>
  <!-- Backup generator -->
  <g transform="translate(590, 240)">
    <rect x="-15" y="-10" width="30" height="20" rx="2" fill="none" stroke="#3d5575" stroke-width="0.8"/>
    <text x="0" y="4" font-family="monospace" font-size="6" fill="#3d5575" text-anchor="middle">AUX</text>
  </g>
  <!-- Power cable run -->
  <line x1="490" y1="240" x2="440" y2="240" stroke="#ffd60030" stroke-width="1.5" stroke-dasharray="6 2"/>

  <!-- ===== CONTROL ROOM (right, lower) ===== -->
  <rect x="490" y="290" width="140" height="80" rx="1" fill="#00e5ff10" stroke="#2a3555" stroke-width="1.5"/>
  <text x="560" y="310" font-family="monospace" font-size="9" fill="#5a7aa0" text-anchor="middle">CONTROL ROOM</text>
  <!-- Console desks -->
  <rect x="500" y="325" width="50" height="8" rx="1" fill="none" stroke="#3d5575" stroke-width="0.6"/>
  <rect x="500" y="340" width="50" height="8" rx="1" fill="none" stroke="#3d5575" stroke-width="0.6"/>
  <!-- Monitor symbols -->
  <rect x="505" y="326" width="6" height="5" rx="0.5" fill="#3d5575" opacity="0.4"/>
  <rect x="515" y="326" width="6" height="5" rx="0.5" fill="#3d5575" opacity="0.4"/>
  <rect x="525" y="326" width="6" height="5" rx="0.5" fill="#3d5575" opacity="0.4"/>
  <rect x="535" y="326" width="6" height="5" rx="0.5" fill="#3d5575" opacity="0.4"/>
  <!-- Server rack -->
  <rect x="575" y="320" width="20" height="35" rx="1" fill="none" stroke="#3d5575" stroke-width="0.8"/>
  <line x1="575" y1="328" x2="595" y2="328" stroke="#3d5575" stroke-width="0.3"/>
  <line x1="575" y1="336" x2="595" y2="336" stroke="#3d5575" stroke-width="0.3"/>
  <line x1="575" y1="344" x2="595" y2="344" stroke="#3d5575" stroke-width="0.3"/>

  <!-- ===== MAINTENANCE WORKSHOP (bottom-center) ===== -->
  <rect x="180" y="340" width="160" height="100" rx="1" fill="#00e5ff08" stroke="#2a3555" stroke-width="1.5"/>
  <text x="260" y="360" font-family="monospace" font-size="9" fill="#5a7aa0" text-anchor="middle">MAINTENANCE</text>
  <text x="260" y="370" font-family="monospace" font-size="7" fill="#3d5575" text-anchor="middle">WORKSHOP</text>
  <!-- Workbench -->
  <rect x="195" y="385" width="60" height="10" rx="1" fill="none" stroke="#3d5575" stroke-width="0.6"/>
  <!-- Tool storage -->
  <rect x="195" y="400" width="20" height="25" rx="1" fill="none" stroke="#3d5575" stroke-width="0.6"/>
  <text x="205" y="416" font-family="monospace" font-size="4" fill="#3d5575" text-anchor="middle">TOOLS</text>
  <!-- Parts shelf -->
  <rect x="270" y="385" width="55" height="25" rx="1" fill="none" stroke="#3d5575" stroke-width="0.6"/>
  <text x="297" y="401" font-family="monospace" font-size="5" fill="#3d5575" text-anchor="middle">PARTS</text>

  <!-- ===== OFFICES / BREAK ROOM (bottom-right) ===== -->
  <rect x="490" y="380" width="140" height="80" rx="1" fill="#00e5ff08" stroke="#2a3555" stroke-width="1.5"/>
  <text x="560" y="398" font-family="monospace" font-size="9" fill="#5a7aa0" text-anchor="middle">OFFICES</text>
  <!-- Room divider -->
  <line x1="560" y1="380" x2="560" y2="460" stroke="#2a3555" stroke-width="1"/>
  <!-- Left: offices -->
  <rect x="498" y="410" width="22" height="14" rx="1" fill="none" stroke="#3d5575" stroke-width="0.5"/>
  <rect x="498" y="430" width="22" height="14" rx="1" fill="none" stroke="#3d5575" stroke-width="0.5"/>
  <rect x="526" y="410" width="22" height="14" rx="1" fill="none" stroke="#3d5575" stroke-width="0.5"/>
  <!-- Right: break room -->
  <text x="595" y="410" font-family="monospace" font-size="7" fill="#3d5575" text-anchor="middle">BREAK ROOM</text>
  <rect x="575" y="420" width="30" height="15" rx="1" fill="none" stroke="#3d5575" stroke-width="0.5"/>
  <rect x="580" y="440" width="10" height="10" rx="5" fill="none" stroke="#3d5575" stroke-width="0.5"/>

  <!-- ===== CORRIDORS ===== -->
  <!-- Main corridor (horizontal, center) -->
  <rect x="40" y="310" width="440" height="25" rx="0" fill="#0d1525" stroke="#1e274480" stroke-width="0.5"/>
  <text x="260" y="326" font-family="monospace" font-size="6" fill="#2a3555" text-anchor="middle" letter-spacing="3">MAIN CORRIDOR</text>

  <!-- Vertical corridor (left side, connecting crusher to loading) -->
  <rect x="40" y="170" width="25" height="140" rx="0" fill="#0d1525" stroke="#1e274480" stroke-width="0.5"/>

  <!-- Vertical corridor (right side, connecting cooling/gen to control) -->
  <rect x="640" y="40" width="25" height="420" rx="0" fill="#0d1525" stroke="#1e274480" stroke-width="0.5"/>
  <text x="652" y="250" font-family="monospace" font-size="6" fill="#2a3555" text-anchor="middle" transform="rotate(90, 652, 250)" letter-spacing="2">SERVICE CORRIDOR</text>

  <!-- Connector: crusher room to conveyor -->
  <rect x="220" y="70" width="10" height="40" rx="0" fill="#0d1525" stroke="#1e274480" stroke-width="0.5"/>

  <!-- Connector: conveyor to pump station -->
  <rect x="320" y="140" width="30" height="10" rx="0" fill="#0d1525" stroke="#1e274480" stroke-width="0.5"/>

  <!-- ===== DOOR SYMBOLS ===== -->
  <!-- Door: main corridor to pump station -->
  <line x1="310" y1="310" x2="340" y2="310" stroke="#00e5ff40" stroke-width="2"/>
  <!-- Door: main corridor to maintenance -->
  <line x1="240" y1="335" x2="270" y2="335" stroke="#00e5ff40" stroke-width="2"/>
  <!-- Door: offices to service corridor -->
  <line x1="630" y1="410" x2="630" y2="430" stroke="#00e5ff40" stroke-width="2"/>
  <!-- Door: control room to service corridor -->
  <line x1="630" y1="320" x2="630" y2="340" stroke="#00e5ff40" stroke-width="2"/>
  <!-- Door: generator to service corridor -->
  <line x1="630" y1="220" x2="630" y2="240" stroke="#00e5ff40" stroke-width="2"/>
  <!-- Door: cooling to service corridor -->
  <line x1="630" y1="90" x2="630" y2="110" stroke="#00e5ff40" stroke-width="2"/>

  <!-- ===== NORTH ARROW ===== -->
  <g transform="translate(720, 55)">
    <polygon points="0,-18 -6,0 0,-8 6,0" fill="#5a7aa0" opacity="0.7"/>
    <line x1="0" y1="0" x2="0" y2="10" stroke="#5a7aa0" stroke-width="1" opacity="0.5"/>
    <text x="0" y="-22" font-family="monospace" font-size="8" fill="#5a7aa0" text-anchor="middle" font-weight="bold">N</text>
  </g>

  <!-- ===== SCALE BAR ===== -->
  <g transform="translate(680, 470)">
    <line x1="0" y1="0" x2="60" y2="0" stroke="#5a7aa0" stroke-width="1"/>
    <line x1="0" y1="-3" x2="0" y2="3" stroke="#5a7aa0" stroke-width="1"/>
    <line x1="60" y1="-3" x2="60" y2="3" stroke="#5a7aa0" stroke-width="1"/>
    <line x1="30" y1="-2" x2="30" y2="2" stroke="#5a7aa0" stroke-width="0.5"/>
    <text x="30" y="12" font-family="monospace" font-size="6" fill="#5a7aa0" text-anchor="middle">10m</text>
  </g>

  <!-- ===== TITLE BLOCK ===== -->
  <g transform="translate(40, 470)">
    <text font-family="monospace" font-size="7" fill="#3d5575">BROKEN HILL PROCESSING FACILITY</text>
    <text y="10" font-family="monospace" font-size="5" fill="#2a3555">DWG: BHP-FP-001 REV.3 | SCALE 1:200 | MERIDIAN MINING SERVICES</text>
  </g>

  <!-- ===== CAMERA SYMBOLS (small eye icons) ===== -->
  <!-- Camera at crusher -->
  <g transform="translate(50, 55)">
    <circle r="3" fill="none" stroke="#00e5ff" stroke-width="0.8" opacity="0.6"/>
    <circle r="1" fill="#00e5ff" opacity="0.6"/>
    <text x="6" y="3" font-family="monospace" font-size="4" fill="#00e5ff80">CAM1</text>
  </g>
  <!-- Camera at pump station -->
  <g transform="translate(240, 160)">
    <circle r="3" fill="none" stroke="#00e5ff" stroke-width="0.8" opacity="0.6"/>
    <circle r="1" fill="#00e5ff" opacity="0.6"/>
    <text x="6" y="3" font-family="monospace" font-size="4" fill="#00e5ff80">CAM3</text>
  </g>
  <!-- Camera at loading bay -->
  <g transform="translate(160, 350)">
    <circle r="3" fill="none" stroke="#00e5ff" stroke-width="0.8" opacity="0.6"/>
    <circle r="1" fill="#00e5ff" opacity="0.6"/>
    <text x="6" y="3" font-family="monospace" font-size="4" fill="#00e5ff80">CAM5</text>
  </g>
  <!-- Camera at control room -->
  <g transform="translate(500, 300)">
    <circle r="3" fill="none" stroke="#00e5ff" stroke-width="0.8" opacity="0.6"/>
    <circle r="1" fill="#00e5ff" opacity="0.6"/>
    <text x="6" y="3" font-family="monospace" font-size="4" fill="#00e5ff80">CAM7</text>
  </g>
  <!-- Camera at entry gate -->
  <g transform="translate(85, 400)">
    <circle r="3" fill="none" stroke="#00e5ff" stroke-width="0.8" opacity="0.6"/>
    <circle r="1" fill="#00e5ff" opacity="0.6"/>
    <text x="6" y="3" font-family="monospace" font-size="4" fill="#00e5ff80">CAM9</text>
  </g>

  <!-- ===== FIRE EXTINGUISHER SYMBOLS ===== -->
  <g transform="translate(70, 310)">
    <rect x="-2" y="-3" width="4" height="6" rx="1" fill="#ff4444" opacity="0.3"/>
    <text x="5" y="2" font-family="monospace" font-size="3.5" fill="#ff444460">FE</text>
  </g>
  <g transform="translate(470, 310)">
    <rect x="-2" y="-3" width="4" height="6" rx="1" fill="#ff4444" opacity="0.3"/>
    <text x="5" y="2" font-family="monospace" font-size="3.5" fill="#ff444460">FE</text>
  </g>

  <!-- ===== ELECTRICAL PANEL SYMBOLS ===== -->
  <g transform="translate(440, 195)">
    <rect x="-4" y="-5" width="8" height="10" rx="0.5" fill="none" stroke="#ffd600" stroke-width="0.6" opacity="0.5"/>
    <path d="M-1,-3 L1,0 L-1,3" stroke="#ffd600" stroke-width="0.5" fill="none" opacity="0.5"/>
    <text x="6" y="2" font-family="monospace" font-size="3.5" fill="#ffd60060">EP</text>
  </g>

  <!-- ===== EMERGENCY EXIT MARKERS ===== -->
  <g transform="translate(640, 450)">
    <rect x="-6" y="-4" width="12" height="8" rx="1" fill="#22c55e20" stroke="#22c55e" stroke-width="0.5" opacity="0.5"/>
    <text x="0" y="2" font-family="monospace" font-size="4" fill="#22c55e80" text-anchor="middle">EXIT</text>
  </g>
  <g transform="translate(40, 305)">
    <rect x="-6" y="-4" width="12" height="8" rx="1" fill="#22c55e20" stroke="#22c55e" stroke-width="0.5" opacity="0.5"/>
    <text x="0" y="2" font-family="monospace" font-size="4" fill="#22c55e80" text-anchor="middle">EXIT</text>
  </g>

  <!-- ===== PIPE RUNS (connecting areas) ===== -->
  <!-- Main water/coolant pipe from cooling tower to pump station -->
  <path d="M490 120 L440 120 L440 180" stroke="#00e5ff20" stroke-width="2" fill="none" stroke-dasharray="6 3"/>
  <!-- Drainage pipe from pump station down -->
  <path d="M330 300 L330 310" stroke="#5a7aa060" stroke-width="2" fill="none"/>

  <!-- ===== HAZARD ZONE around Pump 3 ===== -->
  <circle cx="310" cy="270" r="35" fill="none" stroke="#ff444440" stroke-width="1" stroke-dasharray="3 3">
    <animate attributeName="r" values="33;37;33" dur="3s" repeatCount="indefinite"/>
    <animate attributeName="opacity" values="0.4;0.8;0.4" dur="3s" repeatCount="indefinite"/>
  </circle>
</svg>